<?xml version="1.0" standalone="no"?>
<!DOCTYPE svg PUBLIC "-//W3C//DTD SVG 20010904//EN"
 "http://www.w3.org/TR/2001/REC-SVG-20010904/DTD/svg10.dtd">
<svg version="1.0" xmlns="http://www.w3.org/2000/svg"
 width="500.000000pt" height="500.000000pt" viewBox="0 0 500.000000 500.000000"
 preserveAspectRatio="xMidYMid meet">
<metadata>
Created by potrace 1.14, written by Peter Selinger 2001-2017
</metadata>
<g transform="translate(0.000000,500.000000) scale(0.100000,-0.100000)"
fill="#000000" stroke="none">
<path d="M1496 4873 c-13 -14 -4 -46 27 -93 17 -27 35 -50 40 -50 4 0 16 9 27
20 22 22 19 43 -4 34 -8 -3 -20 11 -31 36 -18 40 -46 66 -59 53z"/>
<path d="M1747 4615 c-21 -20 -10 -53 23 -70 32 -16 50 -5 50 32 0 15 -10 28
-29 38 -26 13 -31 13 -44 0z"/>
<path d="M2925 4358 c-27 -32 -29 -56 -11 -113 5 -16 -12 -40 -75 -107 -76
-83 -109 -107 -95 -73 10 27 -15 62 -59 84 -23 11 -51 21 -62 21 -29 0 -46
-49 -41 -115 5 -61 25 -85 65 -80 27 3 31 -20 6 -34 -15 -7 -49 17 -178 126
-88 73 -158 139 -156 146 22 70 -1 115 -64 122 -18 2 -62 -24 -69 -40 -14 -37
-6 -74 20 -94 15 -12 32 -21 39 -21 7 0 22 -48 38 -117 57 -257 107 -483 107
-487 0 -2 23 -6 50 -9 65 -8 70 -11 70 -53 0 -33 -1 -34 -38 -34 -35 0 -42 5
-73 50 -19 28 -42 53 -51 56 -24 7 -42 100 -27 141 5 14 4 23 -4 27 -9 3 -8 5
1 5 7 1 10 6 7 11 -4 6 -9 23 -11 38 -6 31 -16 50 -65 123 -60 90 -97 111
-129 77 -17 -19 -25 -45 -21 -70 1 -9 -16 -3 -81 29 -57 27 -85 29 -92 6 -7
-22 1 -68 16 -97 l11 -21 -24 20 c-13 11 -32 28 -42 37 -25 25 -57 10 -85 -40
-22 -39 -24 -40 -52 -28 -16 6 -42 23 -57 36 -101 88 -184 150 -200 150 -20 0
-61 -25 -80 -50 -9 -12 -8 -19 9 -37 29 -31 47 -92 37 -122 -5 -14 -23 -41
-40 -59 -24 -25 -36 -31 -52 -26 -55 19 -112 31 -136 28 -14 -1 -31 -2 -38 -3
-19 -2 -26 -40 -13 -72 7 -16 16 -29 21 -29 4 0 18 -14 30 -31 l22 -32 -23
-19 c-12 -10 -30 -33 -39 -51 -28 -56 -96 -72 -181 -42 -54 19 -90 19 -117 0
-19 -13 -21 -20 -12 -42 20 -52 14 -110 -16 -149 -15 -19 -33 -38 -39 -40 -7
-3 -125 37 -262 88 -285 106 -325 113 -386 66 -33 -25 -53 -67 -51 -105 0 -7
1 -24 2 -38 0 -14 17 -43 37 -65 29 -32 52 -45 113 -64 42 -13 65 -25 53 -25
-77 -3 -136 -67 -129 -142 8 -91 54 -125 209 -150 l77 -13 -39 -17 c-44 -20
-70 -61 -70 -111 0 -36 31 -95 55 -104 19 -8 20 -34 0 -34 -20 0 -85 -32 -85
-42 0 -41 78 -140 121 -153 10 -3 45 3 78 15 33 11 74 20 91 20 28 0 30 -3 30
-35 0 -31 -11 -47 -84 -123 -69 -72 -83 -91 -75 -105 6 -10 14 -15 19 -12 5 3
11 1 15 -5 4 -6 11 -7 17 -4 7 5 8 2 4 -5 -5 -7 -19 -17 -33 -22 l-25 -9 26
-25 c15 -14 33 -25 40 -25 8 0 12 -9 9 -22 -2 -16 9 -37 37 -68 48 -54 56 -79
37 -116 -9 -19 -11 -40 -7 -62 4 -17 3 -32 -2 -32 -15 0 -26 -44 -16 -66 7
-14 6 -28 -1 -42 -19 -35 -6 -47 47 -44 l47 3 3 -111 c2 -70 9 -120 18 -138 7
-15 14 -33 14 -40 0 -13 27 -27 72 -36 19 -4 30 -16 38 -42 12 -35 18 -60 19
-80 1 -5 22 -25 47 -42 39 -28 45 -37 44 -65 -3 -58 0 -75 19 -98 l19 -23 53
37 c30 20 64 44 75 52 20 15 24 14 47 -7 14 -13 35 -41 46 -63 18 -34 19 -40
6 -48 -23 -12 -19 -24 23 -66 67 -69 85 -95 99 -143 16 -52 59 -96 104 -105
27 -5 46 -33 35 -52 -3 -5 1 -14 8 -20 19 -16 262 -13 327 4 48 13 50 12 65
-9 8 -13 22 -71 31 -130 10 -58 22 -106 27 -106 5 0 37 9 70 20 34 10 97 30
141 43 92 26 91 24 68 137 -21 98 -19 100 65 120 82 19 86 18 126 -48 23 -36
29 -41 46 -32 21 11 33 39 36 85 1 17 2 35 3 41 2 20 31 24 62 9 16 -9 38 -33
49 -55 20 -39 54 -70 77 -70 8 0 44 -19 81 -41 40 -25 84 -44 110 -47 79 -9
172 46 172 102 0 18 22 28 183 80 100 32 200 60 222 62 66 8 86 14 84 27 -4
36 17 48 116 61 65 8 100 25 118 56 19 31 68 51 172 70 32 5 63 14 68 19 19
19 24 88 10 142 -8 30 -17 63 -20 74 -7 29 -4 70 7 100 8 20 7 25 -3 20 -6 -4
-3 1 7 9 11 9 14 16 7 16 -7 0 -9 5 -5 13 6 9 5 9 -7 0 -13 -11 -19 -8 -37 12
-12 14 -28 25 -35 25 -8 0 -22 10 -33 22 -12 14 -14 18 -4 13 8 -4 12 -5 8 0
-4 4 -18 13 -30 19 -15 7 -22 20 -22 39 0 15 4 27 10 27 5 -1 46 -30 90 -65
109 -85 137 -98 192 -92 32 3 53 13 76 36 27 27 31 38 30 81 -1 27 -7 57 -14
65 -24 29 -5 23 80 -26 72 -42 92 -49 138 -49 50 0 58 3 93 39 33 33 39 45 39
80 0 46 -11 73 -43 108 -26 29 -20 29 50 -3 74 -33 152 -36 190 -8 68 51 86
126 47 193 -32 54 -45 60 -448 202 -77 27 -161 64 -188 81 -50 35 -71 74 -47
89 44 27 44 27 24 49 -19 21 -19 23 -2 35 24 17 23 48 -2 40 -11 -3 -25 1 -34
10 -14 14 -14 20 0 68 8 28 19 54 24 55 30 12 -23 37 -68 33 -17 -2 -26 7 -40
36 -9 21 -19 41 -21 45 -2 4 9 8 25 10 19 2 27 8 24 18 -11 40 -8 80 6 80 11
0 13 7 8 29 -3 16 -2 32 3 35 5 3 8 21 6 41 -1 19 2 35 7 35 15 0 10 27 -6 34
-8 3 -15 14 -15 25 0 11 -4 23 -10 26 -16 10 -11 33 12 54 l21 20 -26 40 -27
40 22 21 22 21 -29 24 -30 25 33 30 c38 35 40 47 10 52 -13 2 -22 7 -20 11 2
5 -6 17 -18 27 -20 17 -20 20 -6 42 17 27 21 20 -70 105 -23 21 -47 55 -55 76
-10 30 -18 37 -39 37 -18 0 -31 8 -40 26 -22 40 -41 45 -90 23 -47 -21 -58
-17 -66 26 -3 16 -7 32 -10 36 -8 14 -34 -2 -34 -21 0 -26 -26 -45 -34 -24 -4
11 -13 14 -30 10 -19 -5 -32 1 -56 25 -39 39 -71 35 -149 -18 -33 -23 -63 -36
-80 -35 -20 1 -23 0 -11 -8 13 -8 12 -10 -3 -10 -10 0 -16 -4 -12 -9 3 -5 -4
-13 -16 -16 -17 -6 -19 -9 -8 -16 11 -7 11 -9 1 -9 -7 0 -11 -3 -8 -8 8 -14
-23 -45 -39 -38 -11 4 -14 2 -9 -6 5 -8 2 -9 -10 -5 -10 4 -24 7 -32 7 -9 0
-14 11 -14 31 0 26 15 45 97 122 53 51 135 129 182 174 54 51 90 78 96 72 13
-13 67 -11 87 5 28 21 38 58 23 92 -14 34 -32 44 -75 44 -31 0 -70 -39 -70
-70 0 -9 -6 -17 -12 -17 -20 0 -160 -13 -193 -18 -16 -2 -57 -7 -90 -10 -33
-3 -79 -8 -101 -11 l-41 -5 -23 143 c-12 79 -24 152 -26 163 -11 53 -16 109
-10 103 14 -12 62 13 79 41 24 41 21 75 -9 110 -21 26 -33 31 -69 31 -36 0
-48 -5 -70 -32z m-783 -566 c4 -2 8 -10 8 -18 0 -8 4 -14 8 -14 20 0 64 -48
57 -61 -5 -8 -5 -11 0 -7 4 4 14 0 23 -8 11 -12 12 -18 3 -27 -9 -9 -14 -8
-21 3 -7 10 -10 11 -10 3 0 -33 -48 -1 -156 104 -53 52 -63 65 -43 60 19 -5
35 0 59 18 l34 25 15 -37 c8 -21 18 -39 23 -41z m622 -302 c14 -5 26 -14 26
-20 0 -6 -5 -8 -12 -4 -7 4 -8 3 -4 -4 4 -7 14 -12 22 -12 8 0 14 -7 14 -15 0
-18 -10 -19 -47 -3 -15 6 -31 11 -35 10 -12 -3 -9 16 3 23 6 4 8 13 5 21 -6
17 -5 17 28 4z m-59 -30 c8 -13 -5 -13 -25 0 -13 8 -13 10 2 10 9 0 20 -4 23
-10z m-77 -115 c-6 -14 -13 -23 -15 -21 -5 5 15 46 22 46 3 0 -1 -11 -7 -25z
m170 -11 c20 -3 41 -9 47 -12 5 -3 25 -7 44 -9 20 -2 51 -16 71 -30 55 -41
130 -115 124 -124 -9 -15 16 -48 38 -51 33 -4 96 -132 80 -159 -7 -10 -12 -23
-12 -28 0 -5 -5 -22 -12 -38 -6 -15 -12 -30 -13 -33 -11 -42 -18 -50 -38 -44
-12 3 -33 13 -46 23 -50 34 -64 39 -86 31 -33 -13 -66 -1 -102 35 -22 23 -39
31 -55 29 -19 -4 -29 5 -55 48 -20 33 -28 57 -22 63 5 5 9 21 9 37 0 33 -28
51 -65 42 -14 -3 -25 -2 -25 4 0 5 -17 26 -38 47 l-39 37 26 52 c14 28 29 53
32 56 4 3 9 15 13 26 6 20 11 21 46 13 22 -5 57 -12 78 -15z m-938 6 c-13 -8
-12 -10 3 -10 9 0 17 -5 17 -11 0 -5 5 -7 10 -4 25 15 6 -6 -35 -40 l-46 -37
18 36 c9 20 21 36 27 36 6 0 5 4 -3 9 -15 10 -7 31 12 31 7 0 6 -4 -3 -10z
m151 -32 c2 -24 -3 -41 -16 -55 -8 -7 -12 -24 -9 -38 4 -23 3 -24 -26 -13
l-30 10 22 37 c12 20 27 44 32 54 13 20 25 22 27 5z m-237 -100 c-5 -7 -24
-30 -44 -51 -40 -44 -103 -136 -120 -177 l-11 -27 -55 20 c-30 11 -54 24 -54
30 0 5 7 4 15 -3 12 -10 18 -10 32 1 11 10 14 10 9 2 -14 -24 12 -13 28 12 9
13 36 45 61 70 25 26 45 52 45 59 0 13 23 33 66 58 37 20 37 21 28 6z m594 0
c-5 -13 -76 -40 -92 -35 -5 2 0 13 12 25 23 23 87 32 80 10z m-1737 -41 c-10
-9 -11 -8 -5 6 3 10 9 15 12 12 3 -3 0 -11 -7 -18z m1371 -29 c121 -53 115
-45 103 -134 -7 -54 -15 -78 -28 -85 -21 -12 -23 -65 -2 -73 10 -4 15 -20 15
-50 l0 -44 -30 11 c-17 6 -33 19 -36 29 -8 26 -40 40 -102 44 -83 6 -160 48
-148 80 3 8 2 12 -4 9 -6 -3 -10 -3 -11 2 0 4 -2 16 -4 26 -2 9 1 17 6 17 5 0
9 7 9 16 0 12 -6 15 -22 11 -15 -4 1 17 48 65 38 39 76 79 84 89 21 25 41 23
122 -13z m-1452 -23 c0 -14 -4 -25 -9 -25 -4 0 -6 11 -3 25 2 14 6 25 8 25 2
0 4 -11 4 -25z m905 -95 c14 -5 25 -12 25 -14 0 -6 -45 8 -80 23 l-25 11 27
-5 c15 -3 39 -10 53 -15z m1492 -229 c5 -33 28 -58 60 -64 20 -4 34 2 54 22
23 24 30 26 48 16 12 -6 19 -14 15 -18 -4 -3 3 -24 15 -47 11 -22 21 -44 21
-48 0 -4 -16 -7 -36 -8 -64 -1 -99 -84 -55 -131 19 -20 19 -20 -13 -30 -30 -9
-34 -8 -50 20 -17 30 -17 31 2 46 49 39 54 88 14 133 -24 26 -36 31 -67 30
-22 -1 -46 -8 -54 -17 -13 -13 -17 -10 -36 23 -13 24 -32 41 -52 47 -20 7 -29
15 -25 22 5 8 13 9 22 3 25 -16 59 -11 78 10 23 27 54 22 59 -9z m-238 -163
c2 -15 -41 -30 -52 -19 -8 8 -4 18 13 36 22 24 25 24 31 8 4 -10 8 -21 8 -25z
m172 -54 c5 -6 6 -14 2 -17 -13 -14 -38 -7 -51 14 -11 17 -10 23 10 39 23 18
23 18 26 -3 2 -12 8 -27 13 -33z m325 -109 c4 -23 2 -41 -7 -51 -11 -13 -14
-11 -25 16 -7 16 -20 33 -29 36 -21 9 -19 24 4 24 11 0 23 5 26 10 10 17 24 1
31 -35z m-1058 -50 c13 -3 34 0 50 8 27 13 28 13 43 -23 16 -36 16 -36 -13
-53 -15 -9 -28 -12 -28 -8 0 17 -37 50 -63 56 -78 20 -130 -52 -88 -121 22
-36 64 -49 101 -30 25 12 27 11 42 -26 9 -21 12 -38 7 -38 -6 0 -21 -11 -34
-25 -22 -21 -25 -22 -25 -6 0 10 -9 30 -21 45 -47 60 -148 15 -134 -58 13 -62
78 -85 127 -47 l24 19 2 -31 c2 -17 12 -41 23 -53 l20 -21 -33 -8 c-18 -4 -39
-7 -47 -6 -7 1 -10 -2 -7 -8 4 -5 1 -13 -6 -17 -7 -4 -10 -4 -6 0 7 8 0 18
-34 57 -21 23 -56 25 -85 4 -21 -14 -21 -13 -32 50 -8 45 -8 71 -1 84 17 33
11 56 -21 85 -40 36 -35 62 10 58 37 -3 81 20 81 42 0 8 12 22 28 32 35 23 47
35 55 58 7 17 9 17 25 4 9 -9 27 -19 40 -23z m-1448 -351 c0 -8 -4 -14 -10
-14 -5 0 -10 9 -10 21 0 11 5 17 10 14 6 -3 10 -13 10 -21z m-90 -14 c0 -5 -2
-10 -4 -10 -3 0 -8 5 -11 10 -3 6 -1 10 4 10 6 0 11 -4 11 -10z m657 -45 c0
-8 -9 -15 -21 -15 -20 0 -20 0 0 15 10 8 19 15 20 15 0 0 1 -7 1 -15z m401
-43 c23 -32 48 -64 56 -71 27 -23 7 -31 -26 -11 -17 10 -36 16 -43 13 -7 -2
-16 5 -20 16 -3 12 -10 21 -15 21 -8 0 -8 17 -1 83 2 14 8 7 49 -51z m631 6
c1 -8 -37 -4 -63 7 -16 7 -14 10 15 19 33 11 45 5 48 -26z m-359 -11 c0 -23
37 -49 67 -47 54 4 64 0 97 -36 35 -38 63 -45 116 -31 21 6 29 1 48 -30 20
-31 21 -38 8 -45 -30 -17 -46 -40 -46 -65 0 -28 -25 -63 -44 -63 -6 0 -17 4
-25 9 -11 7 -9 14 9 39 29 39 29 81 0 104 -29 23 -51 23 -83 -2 -14 -11 -30
-20 -36 -20 -6 0 -20 -9 -32 -21 -11 -11 -27 -18 -35 -15 -11 4 -8 11 10 30
29 28 25 59 -8 81 -30 20 -63 8 -78 -26 -7 -16 -15 -29 -18 -29 -13 1 -65 64
-81 99 l-17 40 36 6 c20 3 48 13 62 20 32 18 50 19 50 2z m-150 -152 c18 0 70
-39 70 -52 0 -5 -9 -15 -19 -23 -11 -7 -18 -17 -15 -21 2 -4 -10 -6 -27 -4
-30 4 -31 3 -13 -10 10 -8 14 -15 8 -15 -6 0 -16 -11 -22 -25 -18 -38 -28 -30
-26 23 0 26 5 46 11 45 5 -1 10 14 10 33 0 19 -4 34 -9 34 -4 0 -8 7 -8 16 0
10 5 12 12 7 7 -4 20 -7 28 -8z m800 -316 c0 -5 7 -6 15 -3 18 7 47 -14 39
-27 -3 -5 -14 -4 -25 2 -11 6 -33 8 -48 4 -25 -5 -28 -3 -26 17 1 13 3 24 4
25 4 5 41 -11 41 -18z m1840 -65 c0 -8 -19 -13 -24 -6 -3 5 1 9 9 9 8 0 15 -2
15 -3z m-3435 -206 c25 -61 23 -73 -9 -71 -36 3 -77 39 -68 62 7 20 32 40 50
41 7 0 19 -15 27 -32z m3015 2 c0 -6 -7 -13 -15 -16 -8 -4 -13 -10 -10 -14 3
-5 1 -11 -5 -15 -5 -3 -10 -2 -10 3 0 5 -10 13 -22 17 -21 7 -20 8 10 12 17 2
32 8 32 14 0 5 5 9 10 9 6 0 10 -5 10 -10z m-60 -102 c0 -5 4 -7 9 -3 6 3 8
-4 6 -16 -3 -14 0 -19 9 -16 7 3 13 -1 13 -9 0 -12 -3 -12 -21 0 -12 8 -20 19
-18 25 1 6 -2 11 -7 11 -5 0 -11 7 -14 14 -4 10 -1 13 9 9 7 -3 14 -9 14 -15z"/>
<path d="M2843 3303 c-21 -4 -34 -33 -15 -33 10 0 8 -73 -3 -91 -7 -12 -6 -12
7 -1 9 8 14 21 12 30 -4 13 -2 12 7 -2 10 -16 9 -21 -6 -32 -21 -15 -39 -8
-31 12 3 8 0 11 -10 7 -17 -6 -18 -15 -2 -31 9 -9 6 -14 -13 -21 -18 -7 -20
-10 -6 -10 10 -1 16 -5 13 -9 -3 -5 6 -15 19 -22 13 -7 22 -18 19 -24 -3 -6 1
-3 9 7 16 20 32 23 21 5 -5 -10 -4 -10 6 -1 11 10 17 10 29 0 12 -10 13 -9 7
1 -7 11 -4 12 11 3 11 -6 24 -7 28 -3 5 4 5 1 0 -7 -6 -10 1 -12 34 -7 23 3
47 9 53 12 6 4 8 2 4 -4 -3 -6 -1 -14 5 -18 7 -4 9 -3 6 2 -3 6 -2 16 4 24 7
13 9 12 9 -2 0 -10 5 -18 11 -18 6 0 9 7 5 15 -3 8 0 15 7 15 7 0 8 3 2 8 -5
4 -18 23 -29 44 -19 38 -51 55 -60 32 -3 -8 -11 -14 -18 -13 -10 0 -10 2 -1 6
20 8 -8 43 -35 43 -27 0 -39 -26 -23 -51 7 -12 7 -19 1 -19 -5 0 -10 5 -10 11
0 5 -5 7 -12 3 -8 -5 -9 -2 -5 9 4 11 1 17 -7 17 -15 0 -16 24 -1 37 4 4 5 2
0 -6 -5 -9 -4 -12 4 -10 7 3 12 8 11 13 -3 15 24 26 33 13 5 -7 7 -2 3 13 -3
14 -6 30 -6 37 0 6 -13 10 -29 9 -17 -1 -28 2 -25 6 3 4 2 7 -3 7 -4 -1 -18
-4 -30 -6z"/>
<path d="M2750 3271 c-14 -28 -4 -64 17 -57 8 3 18 6 23 6 19 0 17 30 -5 50
l-23 22 -12 -21z"/>
<path d="M2733 3165 c0 -8 4 -12 9 -9 4 3 8 9 8 15 0 5 -4 9 -8 9 -5 0 -9 -7
-9 -15z"/>
<path d="M2766 3162 c-3 -4 4 -9 15 -9 23 -2 25 3 4 10 -8 4 -16 3 -19 -1z"/>
<path d="M2850 3050 c-22 -22 -20 -57 4 -72 39 -26 98 20 77 60 -6 11 -8 21
-6 24 2 2 -9 5 -25 6 -19 1 -37 -5 -50 -18z"/>
<path d="M3026 3004 c-23 -23 -20 -51 9 -70 30 -20 63 -10 71 21 13 52 -43 87
-80 49z"/>
<path d="M1959 3124 c-10 -13 -10 -17 2 -25 27 -17 44 -4 33 25 -8 20 -18 20
-35 0z"/>
<path d="M1904 2956 c-10 -26 4 -48 28 -44 17 2 23 10 23 28 0 18 -6 26 -23
28 -13 2 -25 -3 -28 -12z"/>
<path d="M1684 4335 c-50 -34 -29 -108 38 -136 36 -15 50 -3 53 44 2 18 7 43
13 53 13 25 4 39 -28 41 -14 0 -32 4 -40 7 -8 3 -25 0 -36 -9z"/>
<path d="M1934 4197 c-10 -26 28 -83 48 -71 16 10 8 41 -17 64 -21 20 -25 21
-31 7z"/>
<path d="M705 3921 c-56 -30 -55 -30 -43 -56 6 -14 15 -25 19 -25 20 0 19 -42
-1 -70 l-22 -31 27 -39 c19 -28 37 -41 59 -45 77 -13 86 -13 86 -5 0 5 11 21
24 35 29 31 28 66 -3 99 -11 12 -21 30 -21 40 0 24 -36 82 -63 101 -25 17 -23
18 -62 -4z"/>
<path d="M4402 3567 c-9 -11 -23 -14 -41 -11 -20 4 -30 1 -34 -10 -4 -9 -15
-16 -25 -16 -27 0 -52 -32 -52 -66 0 -18 -7 -34 -20 -42 -24 -14 -26 -32 -5
-32 8 0 15 -6 16 -12 2 -30 10 -66 25 -105 12 -34 21 -43 39 -43 14 0 29 -9
35 -20 8 -15 17 -19 31 -15 16 5 19 1 19 -29 0 -34 21 -66 42 -66 25 0 99 53
113 80 9 17 11 30 6 30 -12 0 -2 32 12 42 6 3 10 33 9 66 -1 46 3 62 15 66 13
5 13 9 2 22 -8 9 -14 22 -14 29 0 6 -15 29 -32 51 -18 21 -44 53 -57 69 -21
26 -25 28 -31 13 -9 -23 -33 -23 -37 -1 -3 15 -4 15 -16 0z"/>
<path d="M2470 3520 c0 -5 5 -10 10 -10 6 0 10 5 10 10 0 6 -4 10 -10 10 -5 0
-10 -4 -10 -10z"/>
<path d="M3210 3491 c0 -5 7 -11 14 -14 10 -4 13 -1 9 9 -6 15 -23 19 -23 5z"/>
<path d="M3230 3441 c0 -6 4 -13 10 -16 6 -3 7 1 4 9 -7 18 -14 21 -14 7z"/>
<path d="M464 1542 c-15 -2 -23 -12 -27 -35 -4 -18 -9 -42 -12 -53 -6 -20 -2
-22 54 -28 70 -8 94 1 116 44 14 27 14 30 -11 49 -15 12 -34 21 -43 22 -9 0
-25 2 -36 3 -11 1 -30 0 -41 -2z"/>
<path d="M449 1227 c-23 -16 -34 -31 -34 -47 0 -23 4 -25 45 -24 l45 1 3 47
c4 54 -7 58 -59 23z"/>
<path d="M4115 1074 c-25 -19 -13 -42 36 -67 l34 -17 22 27 c13 16 23 30 23
33 0 9 -61 40 -78 40 -9 0 -26 -7 -37 -16z"/>
<path d="M2402 297 c-8 -10 -23 -61 -27 -92 -2 -17 24 -64 42 -74 25 -13 52 4
69 44 20 49 18 92 -5 105 -45 24 -69 29 -79 17z"/>
</g>
</svg>
